<?xml version="1.0" standalone="no"?>
<!DOCTYPE svg PUBLIC "-//W3C//DTD SVG 20010904//EN"
 "http://www.w3.org/TR/2001/REC-SVG-20010904/DTD/svg10.dtd">
<svg version="1.0" xmlns="http://www.w3.org/2000/svg"
 width="500.000000pt" height="500.000000pt" viewBox="0 0 500.000000 500.000000"
 preserveAspectRatio="xMidYMid meet">
<metadata>
Created by potrace 1.16, written by Peter Selinger 2001-2019
</metadata>
<g transform="translate(0.000000,500.000000) scale(0.100000,-0.100000)">
<path d="M918 4070 c-47 -12 -48 -19 -48 -617 l0 -563 320 0 320 0 0 250 0
251 310 -3 310 -3 52 -55 c98 -105 154 -166 303 -330 82 -91 186 -203 231
-250 45 -47 121 -129 170 -184 l89 -98 3 456 2 456 315 0 315 0 0 -245 0 -245
309 0 309 0 6 23 c3 12 6 268 6 568 0 524 -1 548 -19 570 l-19 24 -1631 0
c-896 0 -1640 -2 -1653 -5z"/>
<path d="M2120 2053 l0 -463 -300 0 -300 0 0 -330 0 -330 1035 0 1035 0 0 330
0 330 -277 0 c-247 0 -282 2 -318 19 -39 17 -58 36 -220 211 -43 47 -146 157
-229 245 -83 88 -185 195 -226 240 -41 44 -103 109 -137 145 l-63 65 0 -462z"/>
</g>
</svg>
